TITLE ""
FILE "1Q_t_0888-0900.mp3" MP3
  TRACK 01 AUDIO
    TITLE "1Q_t_0888-0900_01"
    INDEX 01 00:00:00
  TRACK 02 AUDIO
    TITLE "1Q_t_0888-0900_02"
    INDEX 01 00:01:10
  TRACK 03 AUDIO
    TITLE "1Q_t_0888-0900_03"
    INDEX 01 00:01:22
  TRACK 04 AUDIO
    TITLE "1Q_t_0888-0900_04"
    INDEX 01 00:03:73
  TRACK 05 AUDIO
    TITLE "1Q_t_0888-0900_05"
    INDEX 01 00:04:04
  TRACK 06 AUDIO
    TITLE "1Q_t_0888-0900_06"
    INDEX 01 00:09:72
  TRACK 07 AUDIO
    TITLE "1Q_t_0888-0900_07"
    INDEX 01 00:10:40
  TRACK 08 AUDIO
    TITLE "1Q_t_0888-0900_08"
    INDEX 01 00:11:57
  TRACK 09 AUDIO
    TITLE "1Q_t_0888-0900_09"
    INDEX 01 00:11:65
  TRACK 10 AUDIO
    TITLE "1Q_t_0888-0900_10"
    INDEX 01 00:14:67
  TRACK 11 AUDIO
    TITLE "1Q_t_0888-0900_11"
    INDEX 01 00:14:73
  TRACK 12 AUDIO
    TITLE "1Q_t_0888-0900_12"
    INDEX 01 00:22:16
  TRACK 13 AUDIO
    TITLE "1Q_t_0888-0900_13"
    INDEX 01 00:22:63
  TRACK 14 AUDIO
    TITLE "1Q_t_0888-0900_14"
    INDEX 01 00:24:09
  TRACK 15 AUDIO
    TITLE "1Q_t_0888-0900_15"
    INDEX 01 00:24:17
  TRACK 16 AUDIO
    TITLE "1Q_t_0888-0900_16"
    INDEX 01 00:27:58
  TRACK 17 AUDIO
    TITLE "1Q_t_0888-0900_17"
    INDEX 01 00:27:66
  TRACK 18 AUDIO
    TITLE "1Q_t_0888-0900_18"
    INDEX 01 00:34:46
  TRACK 19 AUDIO
    TITLE "1Q_t_0888-0900_19"
    INDEX 01 00:35:16
  TRACK 20 AUDIO
    TITLE "1Q_t_0888-0900_20"
    INDEX 01 00:36:30
  TRACK 21 AUDIO
    TITLE "1Q_t_0888-0900_21"
    INDEX 01 00:36:37
  TRACK 22 AUDIO
    TITLE "1Q_t_0888-0900_22"
    INDEX 01 00:38:68
  TRACK 23 AUDIO
    TITLE "1Q_t_0888-0900_23"
    INDEX 01 00:39:01
  TRACK 24 AUDIO
    TITLE "1Q_t_0888-0900_24"
    INDEX 01 00:45:19
  TRACK 25 AUDIO
    TITLE "1Q_t_0888-0900_25"
    INDEX 01 00:45:66
  TRACK 26 AUDIO
    TITLE "1Q_t_0888-0900_26"
    INDEX 01 00:47:14
  TRACK 27 AUDIO
    TITLE "1Q_t_0888-0900_27"
    INDEX 01 00:47:22
  TRACK 28 AUDIO
    TITLE "1Q_t_0888-0900_28"
    INDEX 01 00:49:71
  TRACK 29 AUDIO
    TITLE "1Q_t_0888-0900_29"
    INDEX 01 00:50:04
  TRACK 30 AUDIO
    TITLE "1Q_t_0888-0900_30"
    INDEX 01 00:56:62
  TRACK 31 AUDIO
    TITLE "1Q_t_0888-0900_31"
    INDEX 01 00:57:34
  TRACK 32 AUDIO
    TITLE "1Q_t_0888-0900_32"
    INDEX 01 00:58:49
  TRACK 33 AUDIO
    TITLE "1Q_t_0888-0900_33"
    INDEX 01 00:58:59
  TRACK 34 AUDIO
    TITLE "1Q_t_0888-0900_34"
    INDEX 01 01:01:14
  TRACK 35 AUDIO
    TITLE "1Q_t_0888-0900_35"
    INDEX 01 01:01:20
  TRACK 36 AUDIO
    TITLE "1Q_t_0888-0900_36"
    INDEX 01 01:06:72
  TRACK 37 AUDIO
    TITLE "1Q_t_0888-0900_37"
    INDEX 01 01:07:42
  TRACK 38 AUDIO
    TITLE "1Q_t_0888-0900_38"
    INDEX 01 01:09:02
  TRACK 39 AUDIO
    TITLE "1Q_t_0888-0900_39"
    INDEX 01 01:09:10
  TRACK 40 AUDIO
    TITLE "1Q_t_0888-0900_40"
    INDEX 01 01:11:30
  TRACK 41 AUDIO
    TITLE "1Q_t_0888-0900_41"
    INDEX 01 01:11:36
  TRACK 42 AUDIO
    TITLE "1Q_t_0888-0900_42"
    INDEX 01 01:19:10
  TRACK 43 AUDIO
    TITLE "1Q_t_0888-0900_43"
    INDEX 01 01:19:53
  TRACK 44 AUDIO
    TITLE "1Q_t_0888-0900_44"
    INDEX 01 01:21:15
  TRACK 45 AUDIO
    TITLE "1Q_t_0888-0900_45"
    INDEX 01 01:21:24
  TRACK 46 AUDIO
    TITLE "1Q_t_0888-0900_46"
    INDEX 01 01:23:74
  TRACK 47 AUDIO
    TITLE "1Q_t_0888-0900_47"
    INDEX 01 01:24:05
  TRACK 48 AUDIO
    TITLE "1Q_t_0888-0900_48"
    INDEX 01 01:30:00
  TRACK 49 AUDIO
    TITLE "1Q_t_0888-0900_49"
    INDEX 01 01:30:45
  TRACK 50 AUDIO
    TITLE "1Q_t_0888-0900_50"
    INDEX 01 01:31:50
  TRACK 51 AUDIO
    TITLE "1Q_t_0888-0900_51"
    INDEX 01 01:32:18
  TRACK 52 AUDIO
    TITLE "1Q_t_0888-0900_52"
    INDEX 01 01:33:33
  TRACK 53 AUDIO
    TITLE "1Q_t_0888-0900_53"
    INDEX 01 01:33:41
  TRACK 54 AUDIO
    TITLE "1Q_t_0888-0900_54"
    INDEX 01 01:36:18
  TRACK 55 AUDIO
    TITLE "1Q_t_0888-0900_55"
    INDEX 01 01:36:26
  TRACK 56 AUDIO
    TITLE "1Q_t_0888-0900_56"
    INDEX 01 01:43:44
  TRACK 57 AUDIO
    TITLE "1Q_t_0888-0900_57"
    INDEX 01 01:44:16
  TRACK 58 AUDIO
    TITLE "1Q_t_0888-0900_58"
    INDEX 01 01:45:41
  TRACK 59 AUDIO
    TITLE "1Q_t_0888-0900_59"
    INDEX 01 01:45:50
  TRACK 60 AUDIO
    TITLE "1Q_t_0888-0900_60"
    INDEX 01 01:48:35
  TRACK 61 AUDIO
    TITLE "1Q_t_0888-0900_61"
    INDEX 01 01:48:45
  TRACK 62 AUDIO
    TITLE "1Q_t_0888-0900_62"
    INDEX 01 01:55:59
  TRACK 63 AUDIO
    TITLE "1Q_t_0888-0900_63"
    INDEX 01 01:56:29
  TRACK 64 AUDIO
    TITLE "1Q_t_0888-0900_64"
    INDEX 01 01:57:54
  TRACK 65 AUDIO
    TITLE "1Q_t_0888-0900_65"
    INDEX 01 01:57:65
  TRACK 66 AUDIO
    TITLE "1Q_t_0888-0900_66"
    INDEX 01 02:00:44
  TRACK 67 AUDIO
    TITLE "1Q_t_0888-0900_67"
    INDEX 01 02:00:52
  TRACK 68 AUDIO
    TITLE "1Q_t_0888-0900_68"
    INDEX 01 02:07:15
  TRACK 69 AUDIO
    TITLE "1Q_t_0888-0900_69"
    INDEX 01 02:07:60
  TRACK 70 AUDIO
    TITLE "1Q_t_0888-0900_70"
    INDEX 01 02:09:18
  TRACK 71 AUDIO
    TITLE "1Q_t_0888-0900_71"
    INDEX 01 02:09:25
  TRACK 72 AUDIO
    TITLE "1Q_t_0888-0900_72"
    INDEX 01 02:11:28
  TRACK 73 AUDIO
    TITLE "1Q_t_0888-0900_73"
    INDEX 01 02:11:36
  TRACK 74 AUDIO
    TITLE "1Q_t_0888-0900_74"
    INDEX 01 02:16:63
  TRACK 75 AUDIO
    TITLE "1Q_t_0888-0900_75"
    INDEX 01 02:17:35
  TRACK 76 AUDIO
    TITLE "1Q_t_0888-0900_76"
    INDEX 01 02:18:52
  TRACK 77 AUDIO
    TITLE "1Q_t_0888-0900_77"
    INDEX 01 02:18:64
  TRACK 78 AUDIO
    TITLE "1Q_t_0888-0900_78"
    INDEX 01 02:21:58
  TRACK 79 AUDIO
    TITLE "1Q_t_0888-0900_79"
    INDEX 01 02:21:64
  TRACK 80 AUDIO
    TITLE "1Q_t_0888-0900_80"
    INDEX 01 02:28:46
